<svg id="Layer_1" data-name="Layer 1" xmlns="http://www.w3.org/2000/svg" viewBox="0 0 1800 1800"><defs><style>.cls-1{fill:#fff;}.cls-2{fill:#280eaa;}.cls-3{fill:#00e083;}</style></defs><title>Artboard 1 copy 8Logo</title><rect class="cls-1" width="1800" height="1800"/><polygon class="cls-2" points="569.1 566.25 569.1 773.25 629.1 739.25 629.1 601.25 748.1 532.25 748.1 463.25 569.1 566.25"/><polygon class="cls-2" points="510.1 566.25 510.1 773.25 450.1 739.25 450.1 601.25 331.1 532.25 331.1 463.25 510.1 566.25"/><polygon class="cls-2" points="539.17 513.76 718.58 410.51 659.19 375.46 539.58 444.3 420.42 375.58 360.62 409.99 539.17 513.76"/><polygon class="cls-3" points="479.6 340.75 539.6 306.75 599.6 340.75 539.6 375.75 479.6 340.75"/><polygon class="cls-3" points="391.6 635.75 330.6 600.75 330.6 669.75 391.6 704.75 391.6 635.75"/><polygon class="cls-3" points="689.31 636.54 688.8 706.87 748.89 672.96 749.4 602.63 689.31 636.54" /></svg>