<?xml version="1.0" encoding="utf-8"?>
<!-- Generator: Adobe Illustrator 24.0.0, SVG Export Plug-In . SVG Version: 6.00 Build 0)  -->
<svg version="1.1" id="Layer_1" xmlns="http://www.w3.org/2000/svg" xmlns:xlink="http://www.w3.org/1999/xlink" x="0px" y="0px"
	 viewBox="0 0 2234.1 3574.6" style="enable-background:new 0 0 2234.1 3574.6;" xml:space="preserve">
<style type="text/css">
	.st0{fill:#FFFFFF;}
	.st1{fill:#F2F2F2;}
	.st2{fill:#00E083;}
	.st3{fill:#280EAA;}
	.st4{fill:none;stroke:#000000;stroke-miterlimit:10;}
	.st5{fill:none;stroke:#000000;stroke-width:1.2772;stroke-miterlimit:10;}
	.st6{fill:#333333;}
	.st7{fill:#090324;}
	.st8{fill:#C9C3EA;}
</style>
<rect x="6339.4" y="-3020.9" class="st0" width="478" height="478"/>
<image style="overflow:visible;" width="800" height="1280" xlink:href="sketch1631264023426.png"  transform="matrix(2.7927 0 0 2.7927 0 0)">
</image>
<g>
	<g>
	</g>
	<g>
	</g>
</g>
<g>
	<g>
	</g>
	<g>
	</g>
</g>
<g>
	<rect x="33.1" y="-3802.4" width="888" height="498.3"/>
	<rect x="89.1" y="-3747.1" class="st1" width="777" height="388"/>
	<polygon points="251.6,-3634.1 362.6,-3438.1 251.6,-3245.1 362.6,-3245.1 473.6,-3436.1 362.6,-3634.1 	"/>
	<polygon points="701.1,-3862.1 590.1,-3666.1 701.1,-3473.1 590.1,-3473.1 479.1,-3664.1 590.1,-3862.1 	"/>
</g>
<g>
	<rect x="1213.1" y="-3802.4" class="st2" width="888" height="498.3"/>
	<rect x="1269.1" y="-3747.1" class="st1" width="777" height="388"/>
	<polygon class="st3" points="1431.6,-3634.1 1542.6,-3438.1 1431.6,-3245.1 1542.6,-3245.1 1653.6,-3436.1 1542.6,-3634.1 	"/>
	<polygon class="st3" points="1881.1,-3862.1 1770.1,-3666.1 1881.1,-3473.1 1770.1,-3473.1 1659.1,-3664.1 1770.1,-3862.1 	"/>
</g>
<g>
	<g>
	</g>
	<g>
	</g>
</g>
<g>
	<g>
		<g>
			<polygon points="506.2,-2357.4 506.2,-2150.4 566.2,-2184.4 566.2,-2322.4 685.2,-2391.4 685.2,-2460.4 			"/>
			<polygon points="447.2,-2357.4 447.2,-2150.4 387.2,-2184.4 387.2,-2322.4 268.2,-2391.4 268.2,-2460.4 			"/>
		</g>
		<polygon points="476.2,-2409.9 655.7,-2513.1 596.3,-2548.2 476.7,-2479.3 357.5,-2548 297.7,-2513.6 		"/>
	</g>
	<polygon points="416.7,-2582.9 476.7,-2616.9 536.7,-2582.9 476.7,-2547.9 	"/>
	<polygon points="328.7,-2287.9 267.7,-2322.9 267.7,-2253.9 328.7,-2218.9 	"/>
	<polygon points="626.4,-2287.1 625.9,-2216.8 686,-2250.7 686.5,-2321 	"/>
</g>
<g>
	<g>
		<g>
			<polygon class="st3" points="1686.2,-2357.4 1686.2,-2150.4 1746.2,-2184.4 1746.2,-2322.4 1865.2,-2391.4 1865.2,-2460.4 			"/>
			<polygon class="st3" points="1627.2,-2357.4 1627.2,-2150.4 1567.2,-2184.4 1567.2,-2322.4 1448.2,-2391.4 1448.2,-2460.4 			"/>
		</g>
		<polygon class="st3" points="1656.2,-2409.9 1835.7,-2513.1 1776.3,-2548.2 1656.7,-2479.3 1537.5,-2548 1477.7,-2513.6 		"/>
	</g>
	<polygon class="st2" points="1596.7,-2582.9 1656.7,-2616.9 1716.7,-2582.9 1656.7,-2547.9 	"/>
	<polygon class="st2" points="1508.7,-2287.9 1447.7,-2322.9 1447.7,-2253.9 1508.7,-2218.9 	"/>
	<polygon class="st2" points="1806.4,-2287.1 1805.9,-2216.8 1866,-2250.7 1866.5,-2321 	"/>
</g>
<g>
	<line class="st4" x1="1489.9" y1="-1283.1" x2="1824.2" y2="-706.1"/>
	<line class="st4" x1="1490.8" y1="-705.6" x2="1823.4" y2="-1283.6"/>
	<path class="st2" d="M1656.6-935.6L1656.6-935.6c-32.3,0-58.5-26.2-58.5-58.5v0c0-32.3,26.2-58.5,58.5-58.5h0
		c32.3,0,58.5,26.2,58.5,58.5v0C1715.1-961.8,1688.9-935.6,1656.6-935.6z"/>
	<polygon class="st3" points="1480.6,-935.6 1519.6,-992.6 1480.6,-1052.6 1519.6,-1052.6 1558.6,-994.6 1519.6,-935.6 	"/>
	<g>
		<polygon class="st3" points="1516.9,-1118.4 1585.7,-1113.2 1618.2,-1176.9 1637.7,-1143.2 1607,-1080.4 1536.4,-1084.7 		"/>
		<rect x="1538.3" y="-1184.1" transform="matrix(0.866 -0.5 0.5 0.866 790.9952 622.8739)" class="st3" width="39" height="39"/>
	</g>
	<g>
		<polygon class="st3" points="1796.7,-867.8 1727.9,-873.1 1695.4,-809.3 1675.9,-843.1 1706.6,-905.9 1777.2,-901.6 		"/>
		
			<rect x="1736.3" y="-841.2" transform="matrix(-0.866 0.5 -0.5 -0.866 2865.5952 -2411.1626)" class="st3" width="39" height="39"/>
	</g>
	<g>
		<polygon class="st3" points="1835.7,-1051.6 1796.7,-994.6 1835.7,-934.6 1796.7,-934.6 1757.7,-992.6 1796.7,-1051.6 		"/>
		<rect x="1832.1" y="-1013.6" class="st3" width="39" height="39"/>
	</g>
	<g>
		<polygon class="st3" points="1695.4,-1177.4 1725.3,-1115.2 1796.7,-1118.9 1777.2,-1085.2 1707.5,-1080.4 1675.9,-1143.7 		"/>
		<rect x="1733.6" y="-1181.9" transform="matrix(0.5 -0.866 0.866 0.5 1883.235 937.0551)" class="st3" width="39" height="39"/>
	</g>
	<g>
		<polygon class="st3" points="1618.2,-810.8 1588.3,-873.1 1516.9,-869.3 1536.4,-903.1 1606.1,-907.9 1637.7,-844.6 		"/>
		<rect x="1541" y="-845.3" transform="matrix(-0.5 0.866 -0.866 -0.5 1625.5449 -2590.1946)" class="st3" width="39" height="39"/>
	</g>
	<rect x="1443.1" y="-1013.6" class="st3" width="39" height="39"/>
	<line class="st4" x1="1323.6" y1="-994.1" x2="1990.5" y2="-995.1"/>
	<circle class="st4" cx="1656.6" cy="-994.1" r="99.2"/>
</g>
<g>
	<line class="st4" x1="312.9" y1="-1283.1" x2="647.2" y2="-706.1"/>
	<line class="st4" x1="313.8" y1="-705.6" x2="646.4" y2="-1283.6"/>
	<path d="M479.6-935.6L479.6-935.6c-32.3,0-58.5-26.2-58.5-58.5v0c0-32.3,26.2-58.5,58.5-58.5h0c32.3,0,58.5,26.2,58.5,58.5v0
		C538.1-961.8,511.9-935.6,479.6-935.6z"/>
	<polygon points="303.6,-935.6 342.6,-992.6 303.6,-1052.6 342.6,-1052.6 381.6,-994.6 342.6,-935.6 	"/>
	<g>
		<polygon points="339.9,-1118.4 408.7,-1113.2 441.2,-1176.9 460.7,-1143.2 430,-1080.4 359.4,-1084.7 		"/>
		<rect x="361.3" y="-1184.1" transform="matrix(0.866 -0.5 0.5 0.866 633.3072 34.3739)" width="39" height="39"/>
	</g>
	<g>
		<polygon points="619.7,-867.8 550.9,-873.1 518.4,-809.3 498.9,-843.1 529.6,-905.9 600.2,-901.6 		"/>
		<rect x="559.3" y="-841.2" transform="matrix(-0.866 0.5 -0.5 -0.866 669.2834 -1822.6627)" width="39" height="39"/>
	</g>
	<g>
		<polygon points="658.7,-1051.6 619.7,-994.6 658.7,-934.6 619.7,-934.6 580.7,-992.6 619.7,-1051.6 		"/>
		<rect x="655.1" y="-1013.6" width="39" height="39"/>
	</g>
	<g>
		<polygon points="518.4,-1177.4 548.3,-1115.2 619.7,-1118.9 600.2,-1085.2 530.5,-1080.4 498.9,-1143.7 		"/>
		<rect x="556.6" y="-1181.9" transform="matrix(0.5 -0.866 0.866 0.5 1294.735 -82.2568)" width="39" height="39"/>
	</g>
	<g>
		<polygon points="441.2,-810.8 411.3,-873.1 339.9,-869.3 359.4,-903.1 429.1,-907.9 460.7,-844.6 		"/>
		<rect x="364" y="-845.3" transform="matrix(-0.5 0.866 -0.866 -0.5 -139.955 -1570.8827)" width="39" height="39"/>
	</g>
	<rect x="266.1" y="-1013.6" width="39" height="39"/>
	<line class="st4" x1="146.6" y1="-994.1" x2="813.5" y2="-995.1"/>
	<circle class="st4" cx="479.6" cy="-994.1" r="99.2"/>
</g>
<g>
	<path d="M477.1-4685.8L477.1-4685.8c-46.3,0-83.8-37.5-83.8-83.8v0c0-46.3,37.5-83.8,83.8-83.8h0c46.3,0,83.8,37.5,83.8,83.8v0
		C560.9-4723.3,523.4-4685.8,477.1-4685.8z"/>
	<g>
		<polygon points="317.8,-5114.7 473,-5008.5 636.4,-5114.7 636.4,-5008.5 478.4,-4902.3 317.8,-5008.5 		"/>
		<rect x="424" y="-5220.9" width="106.2" height="106.2"/>
	</g>
	<g>
		<polygon points="130.7,-4608.7 236.9,-4763.9 130.7,-4927.3 236.9,-4927.3 343.1,-4769.4 236.9,-4608.7 		"/>
		
			<rect x="24.5" y="-4821.1" transform="matrix(6.123234e-17 -1 1 6.123234e-17 4845.583 -4690.4683)" width="106.2" height="106.2"/>
	</g>
	<g>
		<polygon points="824.6,-4927.3 718.4,-4772.1 824.6,-4608.7 718.4,-4608.7 612.2,-4766.7 718.4,-4927.3 		"/>
		
			<rect x="824.6" y="-4821.1" transform="matrix(-1.836970e-16 1 -1 -1.836970e-16 -3890.345 -5645.7065)" width="106.2" height="106.2"/>
	</g>
	<g>
		<polygon points="638.7,-4424.5 483.5,-4530.7 320.1,-4424.5 320.1,-4530.7 478.1,-4636.9 638.7,-4530.7 		"/>
		
			<rect x="426.3" y="-4424.5" transform="matrix(-1 -1.224647e-16 1.224647e-16 -1 958.8571 -8742.8232)" width="106.2" height="106.2"/>
	</g>
	<g>
		<line class="st5" x1="477.1" y1="-5452.6" x2="477.1" y2="-4086.6"/>
		<line class="st5" x1="-205.9" y1="-4769.6" x2="1160.1" y2="-4769.6"/>
	</g>
</g>
<g>
	<path class="st2" d="M1659.1-4688.3L1659.1-4688.3c-46.3,0-83.8-37.5-83.8-83.8v0c0-46.3,37.5-83.8,83.8-83.8h0
		c46.3,0,83.8,37.5,83.8,83.8v0C1742.9-4725.8,1705.4-4688.3,1659.1-4688.3z"/>
	<g>
		<polygon class="st3" points="1499.8,-5117.2 1655,-5011 1818.4,-5117.2 1818.4,-5011 1660.4,-4904.8 1499.8,-5011 		"/>
		<rect x="1606" y="-5223.4" class="st3" width="106.2" height="106.2"/>
	</g>
	<g>
		<polygon class="st3" points="1312.7,-4611.2 1418.9,-4766.4 1312.7,-4929.8 1418.9,-4929.8 1525.1,-4771.9 1418.9,-4611.2 		"/>
		
			<rect x="1206.5" y="-4823.6" transform="matrix(6.123234e-17 -1 1 6.123234e-17 6030.083 -3510.9685)" class="st3" width="106.2" height="106.2"/>
	</g>
	<g>
		<polygon class="st3" points="2006.6,-4929.8 1900.4,-4774.6 2006.6,-4611.2 1900.4,-4611.2 1794.2,-4769.2 1900.4,-4929.8 		"/>
		
			<rect x="2006.6" y="-4823.6" transform="matrix(-1.836970e-16 1 -1 -1.836970e-16 -2710.845 -6830.2065)" class="st3" width="106.2" height="106.2"/>
	</g>
	<g>
		<polygon class="st3" points="1820.7,-4427 1665.5,-4533.2 1502.1,-4427 1502.1,-4533.2 1660.1,-4639.4 1820.7,-4533.2 		"/>
		
			<rect x="1608.3" y="-4427" transform="matrix(-1 -1.224647e-16 1.224647e-16 -1 3322.8569 -8747.8232)" class="st3" width="106.2" height="106.2"/>
	</g>
</g>
<g>
	<g>
		<g>
			<g>
				<polygon class="st3" points="4557.1,-2767.7 4557.1,-2655.4 4589.7,-2673.8 4589.7,-2748.7 4654.2,-2786.1 4654.2,-2823.5 				
					"/>
				<polygon class="st3" points="4525.1,-2767.7 4525.1,-2655.4 4492.6,-2673.8 4492.6,-2748.7 4428,-2786.1 4428,-2823.5 				"/>
			</g>
			<polygon class="st3" points="4540.9,-2796.1 4638.2,-2852.1 4606,-2871.2 4541.1,-2833.8 4476.5,-2871.1 4444,-2852.4 			"/>
		</g>
		<polygon class="st2" points="4508.6,-2890 4541.1,-2908.4 4573.7,-2890 4541.1,-2871 		"/>
		<polygon class="st2" points="4460.8,-2730 4427.7,-2748.9 4427.7,-2711.5 4460.8,-2692.5 		"/>
		<polygon class="st2" points="4622.3,-2729.5 4622,-2691.4 4654.6,-2709.8 4654.9,-2747.9 		"/>
	</g>
	<g>
		<path class="st6" d="M4744.2-2732.8v-81h-27.7v-14h72.8v14h-27.8v81H4744.2z"/>
		<path class="st6" d="M4822.3-2731.2c-6.8,0-12.8-1.4-18-4.3c-5.2-2.9-9.4-7-12.3-12.2c-3-5.2-4.5-11.3-4.5-18.2
			c0-7,1.5-13.2,4.4-18.6c2.9-5.4,7-9.7,12.2-12.7c5.2-3,11.3-4.5,18.4-4.5c6.6,0,12.4,1.4,17.5,4.3c5.1,2.9,9,6.9,11.9,11.9
			s4.3,10.6,4.3,16.8c0,1,0,2-0.1,3.1c0,1.1-0.1,2.2-0.2,3.4h-51.1c0.4,5.2,2.2,9.4,5.5,12.3c3.3,3,7.3,4.5,12,4.5
			c3.5,0,6.5-0.8,8.9-2.4c2.4-1.6,4.2-3.6,5.4-6.2h17.6c-1.3,4.3-3.4,8.1-6.3,11.6c-2.9,3.5-6.6,6.2-10.9,8.2
			C4832.6-2732.2,4827.7-2731.2,4822.3-2731.2z M4822.4-2787.6c-4.3,0-8,1.2-11.3,3.6c-3.3,2.4-5.3,6-6.2,10.9h33.5
			c-0.3-4.4-1.9-8-4.9-10.6C4830.6-2786.3,4826.9-2787.6,4822.4-2787.6z"/>
		<path class="st6" d="M4903.7-2731.2c-6.9,0-12.9-1.5-18.2-4.5c-5.2-3-9.4-7.1-12.4-12.5c-3-5.3-4.5-11.4-4.5-18.3
			c0-6.9,1.5-13,4.5-18.3c3-5.3,7.2-9.5,12.4-12.5c5.2-3,11.3-4.5,18.2-4.5c8.6,0,15.8,2.2,21.7,6.7c5.9,4.5,9.6,10.6,11.3,18.5
			h-18.3c-0.9-3.3-2.7-5.8-5.4-7.7c-2.7-1.9-5.8-2.8-9.4-2.8c-4.8,0-8.9,1.8-12.2,5.4c-3.3,3.6-5,8.6-5,15.1c0,6.4,1.7,11.4,5,15.1
			c3.3,3.6,7.4,5.4,12.2,5.4c3.6,0,6.8-0.9,9.4-2.7c2.7-1.8,4.5-4.4,5.4-7.7h18.3c-1.6,7.6-5.4,13.7-11.3,18.3
			C4919.5-2733.5,4912.3-2731.2,4903.7-2731.2z"/>
		<path class="st6" d="M4952.1-2732.8v-97.7h17.4v40.7c2.3-3.7,5.3-6.6,9.2-8.7c3.8-2.1,8.3-3.2,13.2-3.2c8.3,0,14.8,2.6,19.3,7.9
			c4.6,5.2,6.9,12.9,6.9,23.1v38h-17.2v-36.4c0-5.8-1.2-10.2-3.5-13.3c-2.3-3.1-5.9-4.6-10.9-4.6c-4.9,0-8.9,1.7-12.1,5.2
			c-3.2,3.4-4.8,8.2-4.8,14.4v34.7H4952.1z"/>
		<path class="st6" d="M5034.6-2732.8v-67.3h15.3l1.4,11.4c2.1-4,5.1-7.1,9-9.5c3.9-2.4,8.6-3.5,13.9-3.5c8.3,0,14.8,2.6,19.4,7.9
			c4.6,5.2,6.9,12.9,6.9,23.1v38h-17.4v-36.4c0-5.8-1.2-10.2-3.5-13.3c-2.4-3.1-6-4.6-11-4.6c-4.9,0-8.9,1.7-12,5.2
			c-3.1,3.4-4.7,8.2-4.7,14.4v34.7H5034.6z"/>
		<path class="st6" d="M5149.3-2731.2c-6.5,0-12.4-1.5-17.6-4.5c-5.2-3-9.3-7.1-12.3-12.4c-3-5.3-4.5-11.4-4.5-18.4
			c0-7,1.5-13.1,4.6-18.4c3.1-5.3,7.2-9.4,12.4-12.4c5.2-3,11.1-4.5,17.6-4.5c6.4,0,12.2,1.5,17.4,4.5c5.2,3,9.3,7.1,12.3,12.4
			c3,5.3,4.5,11.4,4.5,18.4c0,7-1.5,13.1-4.5,18.4c-3,5.3-7.2,9.4-12.4,12.4C5161.6-2732.7,5155.8-2731.2,5149.3-2731.2z
			 M5149.3-2746.3c4.5,0,8.5-1.7,11.8-5.1c3.3-3.4,5-8.4,5-15.1c0-6.7-1.7-11.7-5-15.1c-3.3-3.4-7.2-5.1-11.7-5.1
			c-4.6,0-8.6,1.7-11.9,5.1c-3.3,3.4-5,8.4-5,15.1c0,6.7,1.6,11.7,5,15.1C5140.9-2748,5144.8-2746.3,5149.3-2746.3z"/>
		<path class="st6" d="M5231.9-2732.8v-95h17.4v95H5231.9z"/>
		<path class="st6" d="M5289.9-2732.8v-81h-27.7v-14h72.8v14h-27.8v81H5289.9z"/>
		<path class="st6" d="M5380.2-2732.8v-95h17.4v39.5h42.6v-39.5h17.4v95h-17.4v-41.4h-42.6v41.4H5380.2z"/>
		<path class="st6" d="M5500.8-2731.2c-8.4,0-14.9-2.6-19.5-7.9c-4.6-5.2-6.9-12.9-6.9-23.1v-38h17.2v36.4c0,5.8,1.2,10.2,3.5,13.3
			c2.4,3.1,6.1,4.6,11.1,4.6c4.8,0,8.7-1.7,11.9-5.2c3.1-3.4,4.7-8.2,4.7-14.4v-34.7h17.4v67.3h-15.3l-1.4-11.4
			c-2.1,4-5.1,7.1-9,9.5C5510.6-2732.4,5506-2731.2,5500.8-2731.2z"/>
		<path class="st6" d="M5597.9-2731.2c-5.1,0-9.5-0.9-13.3-2.8c-3.8-1.9-6.9-4.6-9.2-8l-1.9,9.2H5558v-97.7h17.4v40
			c2.2-3,5-5.6,8.6-7.9c3.6-2.3,8.2-3.4,13.9-3.4c6.3,0,12,1.5,17,4.6c5,3.1,8.9,7.3,11.8,12.6c2.9,5.3,4.3,11.4,4.3,18.2
			c0,6.8-1.4,12.8-4.3,18.1c-2.9,5.3-6.8,9.5-11.8,12.5C5609.9-2732.7,5604.2-2731.2,5597.9-2731.2z M5594.3-2746.4
			c5.5,0,10.1-1.9,13.7-5.6c3.6-3.7,5.4-8.5,5.4-14.4c0-5.9-1.8-10.7-5.4-14.5c-3.6-3.8-8.2-5.7-13.7-5.7c-5.6,0-10.2,1.9-13.8,5.6
			c-3.6,3.8-5.4,8.6-5.4,14.4c0,5.9,1.8,10.7,5.4,14.4C5584.1-2748.3,5588.6-2746.4,5594.3-2746.4z"/>
	</g>
</g>
<g>
	<g>
		<g>
			<g>
				<polygon class="st3" points="4543.9,-1776.7 4543.9,-1664.4 4576.5,-1682.8 4576.5,-1757.7 4641,-1795.1 4641,-1832.5 				"/>
				<polygon class="st3" points="4511.9,-1776.7 4511.9,-1664.4 4479.4,-1682.8 4479.4,-1757.7 4414.8,-1795.1 4414.8,-1832.5 				
					"/>
			</g>
			<polygon class="st3" points="4527.7,-1805.1 4625,-1861.2 4592.8,-1880.2 4527.9,-1842.8 4463.3,-1880.1 4430.8,-1861.4 			"/>
		</g>
		<polygon class="st3" points="4495.4,-1899 4527.9,-1917.4 4560.5,-1899 4527.9,-1880 		"/>
		<polygon class="st3" points="4447.7,-1739 4414.6,-1758 4414.6,-1720.5 4447.7,-1701.5 		"/>
		<polygon class="st3" points="4609.2,-1738.5 4608.9,-1700.4 4641.5,-1718.8 4641.8,-1756.9 		"/>
	</g>
	<g>
		<path class="st3" d="M4731-1741.8v-81h-27.7v-14h72.8v14h-27.8v81H4731z"/>
		<path class="st3" d="M4809.1-1740.2c-6.8,0-12.8-1.4-18-4.3c-5.2-2.9-9.4-7-12.3-12.2c-3-5.2-4.5-11.3-4.5-18.2
			c0-7,1.5-13.2,4.4-18.6c2.9-5.4,7-9.7,12.2-12.7c5.2-3,11.3-4.5,18.4-4.5c6.6,0,12.4,1.4,17.5,4.3c5.1,2.9,9,6.9,11.9,11.9
			s4.3,10.6,4.3,16.8c0,1,0,2-0.1,3.1c0,1.1-0.1,2.2-0.2,3.4h-51.1c0.4,5.2,2.2,9.4,5.5,12.3c3.3,3,7.3,4.5,12,4.5
			c3.5,0,6.5-0.8,8.9-2.4c2.4-1.6,4.2-3.6,5.4-6.2h17.6c-1.3,4.3-3.4,8.1-6.3,11.6c-2.9,3.5-6.6,6.2-10.9,8.2
			C4819.4-1741.2,4814.6-1740.2,4809.1-1740.2z M4809.3-1796.6c-4.3,0-8,1.2-11.3,3.6c-3.3,2.4-5.3,6-6.2,10.9h33.5
			c-0.3-4.4-1.9-8-4.9-10.6C4817.4-1795.3,4813.7-1796.6,4809.3-1796.6z"/>
		<path class="st3" d="M4890.5-1740.2c-6.9,0-12.9-1.5-18.2-4.5c-5.2-3-9.4-7.1-12.4-12.5c-3-5.3-4.5-11.4-4.5-18.3
			c0-6.9,1.5-13,4.5-18.3c3-5.3,7.2-9.5,12.4-12.5c5.2-3,11.3-4.5,18.2-4.5c8.6,0,15.8,2.2,21.7,6.7c5.9,4.5,9.6,10.6,11.3,18.5
			h-18.3c-0.9-3.3-2.7-5.8-5.4-7.7c-2.7-1.9-5.8-2.8-9.4-2.8c-4.8,0-8.9,1.8-12.2,5.4c-3.3,3.6-5,8.6-5,15.1c0,6.4,1.7,11.4,5,15.1
			c3.3,3.6,7.4,5.4,12.2,5.4c3.6,0,6.8-0.9,9.4-2.7c2.7-1.8,4.5-4.4,5.4-7.7h18.3c-1.6,7.6-5.4,13.7-11.3,18.3
			C4906.3-1742.5,4899.1-1740.2,4890.5-1740.2z"/>
		<path class="st3" d="M4938.9-1741.8v-97.7h17.4v40.7c2.3-3.7,5.3-6.6,9.2-8.7c3.8-2.1,8.3-3.2,13.2-3.2c8.3,0,14.8,2.6,19.3,7.9
			c4.6,5.2,6.9,12.9,6.9,23.1v38h-17.2v-36.4c0-5.8-1.2-10.2-3.5-13.3c-2.3-3.1-5.9-4.6-10.9-4.6c-4.9,0-8.9,1.7-12.1,5.2
			c-3.2,3.4-4.8,8.2-4.8,14.4v34.7H4938.9z"/>
		<path class="st3" d="M5021.4-1741.8v-67.3h15.3l1.4,11.4c2.1-4,5.1-7.1,9-9.5c3.9-2.4,8.6-3.5,13.9-3.5c8.3,0,14.8,2.6,19.4,7.9
			c4.6,5.2,6.9,12.9,6.9,23.1v38H5070v-36.4c0-5.8-1.2-10.2-3.5-13.3c-2.4-3.1-6-4.6-11-4.6c-4.9,0-8.9,1.7-12,5.2
			c-3.1,3.4-4.7,8.2-4.7,14.4v34.7H5021.4z"/>
		<path class="st3" d="M5136.2-1740.2c-6.5,0-12.4-1.5-17.6-4.5c-5.2-3-9.3-7.1-12.3-12.4c-3-5.3-4.5-11.4-4.5-18.4
			c0-7,1.5-13.1,4.6-18.4c3.1-5.3,7.2-9.4,12.4-12.4c5.2-3,11.1-4.5,17.6-4.5c6.4,0,12.2,1.5,17.4,4.5c5.2,3,9.3,7.1,12.3,12.4
			c3,5.3,4.5,11.4,4.5,18.4c0,7-1.5,13.1-4.5,18.4c-3,5.3-7.2,9.4-12.4,12.4C5148.4-1741.7,5142.6-1740.2,5136.2-1740.2z
			 M5136.2-1755.3c4.5,0,8.5-1.7,11.8-5.1c3.3-3.4,5-8.4,5-15.1c0-6.7-1.7-11.7-5-15.1c-3.3-3.4-7.2-5.1-11.7-5.1
			c-4.6,0-8.6,1.7-11.9,5.1c-3.3,3.4-5,8.4-5,15.1c0,6.7,1.6,11.7,5,15.1C5127.7-1757,5131.7-1755.3,5136.2-1755.3z"/>
		<path class="st3" d="M5218.8-1741.8v-95h17.4v95H5218.8z"/>
		<path class="st3" d="M5276.7-1741.8v-81H5249v-14h72.8v14h-27.8v81H5276.7z"/>
		<path class="st3" d="M5367-1741.8v-95h17.4v39.5h42.6v-39.5h17.4v95H5427v-41.4h-42.6v41.4H5367z"/>
		<path class="st3" d="M5487.6-1740.2c-8.4,0-14.9-2.6-19.5-7.9c-4.6-5.2-6.9-12.9-6.9-23.1v-38h17.2v36.4c0,5.8,1.2,10.2,3.5,13.3
			c2.4,3.1,6.1,4.6,11.1,4.6c4.8,0,8.7-1.7,11.9-5.2c3.1-3.4,4.7-8.2,4.7-14.4v-34.7h17.4v67.3h-15.3l-1.4-11.4
			c-2.1,4-5.1,7.1-9,9.5C5497.5-1741.4,5492.9-1740.2,5487.6-1740.2z"/>
		<path class="st3" d="M5584.8-1740.2c-5.1,0-9.5-0.9-13.3-2.8c-3.8-1.9-6.9-4.6-9.2-8l-1.9,9.2h-15.5v-97.7h17.4v40
			c2.2-3,5-5.6,8.6-7.9c3.6-2.3,8.2-3.4,13.9-3.4c6.3,0,12,1.5,17,4.6c5,3.1,8.9,7.3,11.8,12.6c2.9,5.3,4.3,11.4,4.3,18.2
			c0,6.8-1.4,12.8-4.3,18.1c-2.9,5.3-6.8,9.5-11.8,12.5C5596.7-1741.7,5591.1-1740.2,5584.8-1740.2z M5581.1-1755.4
			c5.5,0,10.1-1.9,13.7-5.6c3.6-3.7,5.4-8.5,5.4-14.4c0-5.9-1.8-10.7-5.4-14.5c-3.6-3.8-8.2-5.7-13.7-5.7c-5.6,0-10.2,1.9-13.8,5.6
			c-3.6,3.8-5.4,8.6-5.4,14.4c0,5.9,1.8,10.7,5.4,14.4C5570.9-1757.3,5575.5-1755.4,5581.1-1755.4z"/>
	</g>
</g>
<g>
	<g>
		<g>
			<g>
				<polygon class="st2" points="4541.1,-1322.4 4541.1,-1210.1 4573.7,-1228.5 4573.7,-1303.4 4638.2,-1340.8 4638.2,-1378.3 				
					"/>
				<polygon class="st2" points="4509.1,-1322.4 4509.1,-1210.1 4476.6,-1228.5 4476.6,-1303.4 4412,-1340.8 4412,-1378.3 				"/>
			</g>
			<polygon class="st2" points="4524.9,-1350.9 4622.2,-1406.9 4590,-1425.9 4525.1,-1388.5 4460.5,-1425.8 4428,-1407.1 			"/>
		</g>
		<polygon class="st2" points="4492.6,-1444.7 4525.1,-1463.2 4557.7,-1444.7 4525.1,-1425.7 		"/>
		<polygon class="st2" points="4444.8,-1284.7 4411.7,-1303.7 4411.7,-1266.2 4444.8,-1247.2 		"/>
		<polygon class="st2" points="4606.3,-1284.2 4606.1,-1246.1 4638.7,-1264.5 4638.9,-1302.6 		"/>
	</g>
	<g>
		<path class="st2" d="M4728.2-1287.6v-81h-27.7v-14h72.8v14h-27.8v81H4728.2z"/>
		<path class="st2" d="M4806.3-1285.9c-6.8,0-12.8-1.4-18-4.3c-5.2-2.9-9.4-7-12.3-12.2c-3-5.2-4.5-11.3-4.5-18.2
			c0-7,1.5-13.2,4.4-18.6c2.9-5.4,7-9.7,12.2-12.7c5.2-3,11.3-4.5,18.4-4.5c6.6,0,12.4,1.4,17.5,4.3c5.1,2.9,9,6.9,11.9,11.9
			s4.3,10.6,4.3,16.8c0,1,0,2-0.1,3.1c0,1.1-0.1,2.2-0.2,3.4h-51.1c0.4,5.2,2.2,9.4,5.5,12.3c3.3,3,7.3,4.5,12,4.5
			c3.5,0,6.5-0.8,8.9-2.4c2.4-1.6,4.2-3.6,5.4-6.2h17.6c-1.3,4.3-3.4,8.1-6.3,11.6c-2.9,3.5-6.6,6.2-10.9,8.2
			C4816.6-1286.9,4811.7-1285.9,4806.3-1285.9z M4806.5-1342.4c-4.3,0-8,1.2-11.3,3.6c-3.3,2.4-5.3,6-6.2,10.9h33.5
			c-0.3-4.4-1.9-8-4.9-10.6C4814.6-1341,4810.9-1342.4,4806.5-1342.4z"/>
		<path class="st2" d="M4887.7-1285.9c-6.9,0-12.9-1.5-18.2-4.5c-5.2-3-9.4-7.1-12.4-12.5c-3-5.3-4.5-11.4-4.5-18.3
			c0-6.9,1.5-13,4.5-18.3c3-5.3,7.2-9.5,12.4-12.5c5.2-3,11.3-4.5,18.2-4.5c8.6,0,15.8,2.2,21.7,6.7c5.9,4.5,9.6,10.6,11.3,18.5
			h-18.3c-0.9-3.3-2.7-5.8-5.4-7.7c-2.7-1.9-5.8-2.8-9.4-2.8c-4.8,0-8.9,1.8-12.2,5.4c-3.3,3.6-5,8.6-5,15.1c0,6.4,1.7,11.4,5,15.1
			c3.3,3.6,7.4,5.4,12.2,5.4c3.6,0,6.8-0.9,9.4-2.7c2.7-1.8,4.5-4.4,5.4-7.7h18.3c-1.6,7.6-5.4,13.7-11.3,18.3
			C4903.5-1288.2,4896.3-1285.9,4887.7-1285.9z"/>
		<path class="st2" d="M4936.1-1287.6v-97.7h17.4v40.7c2.3-3.7,5.3-6.6,9.2-8.7c3.8-2.1,8.3-3.2,13.2-3.2c8.3,0,14.8,2.6,19.3,7.9
			c4.6,5.2,6.9,12.9,6.9,23.1v38h-17.2v-36.4c0-5.8-1.2-10.2-3.5-13.3c-2.3-3.1-5.9-4.6-10.9-4.6c-4.9,0-8.9,1.7-12.1,5.2
			c-3.2,3.4-4.8,8.2-4.8,14.4v34.7H4936.1z"/>
		<path class="st2" d="M5018.6-1287.6v-67.3h15.3l1.4,11.4c2.1-4,5.1-7.1,9-9.5c3.9-2.4,8.6-3.5,13.9-3.5c8.3,0,14.8,2.6,19.4,7.9
			c4.6,5.2,6.9,12.9,6.9,23.1v38h-17.4v-36.4c0-5.8-1.2-10.2-3.5-13.3c-2.4-3.1-6-4.6-11-4.6c-4.9,0-8.9,1.7-12,5.2
			c-3.1,3.4-4.7,8.2-4.7,14.4v34.7H5018.6z"/>
		<path class="st2" d="M5133.4-1285.9c-6.5,0-12.4-1.5-17.6-4.5c-5.2-3-9.3-7.1-12.3-12.4c-3-5.3-4.5-11.4-4.5-18.4
			c0-7,1.5-13.1,4.6-18.4c3.1-5.3,7.2-9.4,12.4-12.4c5.2-3,11.1-4.5,17.6-4.5c6.4,0,12.2,1.5,17.4,4.5c5.2,3,9.3,7.1,12.3,12.4
			c3,5.3,4.5,11.4,4.5,18.4c0,7-1.5,13.1-4.5,18.4c-3,5.3-7.2,9.4-12.4,12.4C5145.6-1287.4,5139.8-1285.9,5133.4-1285.9z
			 M5133.4-1301c4.5,0,8.5-1.7,11.8-5.1c3.3-3.4,5-8.4,5-15.1c0-6.7-1.7-11.7-5-15.1c-3.3-3.4-7.2-5.1-11.7-5.1
			c-4.6,0-8.6,1.7-11.9,5.1c-3.3,3.4-5,8.4-5,15.1c0,6.7,1.6,11.7,5,15.1C5124.9-1302.7,5128.8-1301,5133.4-1301z"/>
		<path class="st2" d="M5216-1287.6v-95h17.4v95H5216z"/>
		<path class="st2" d="M5273.9-1287.6v-81h-27.7v-14h72.8v14h-27.8v81H5273.9z"/>
		<path class="st2" d="M5364.2-1287.6v-95h17.4v39.5h42.6v-39.5h17.4v95h-17.4v-41.4h-42.6v41.4H5364.2z"/>
		<path class="st2" d="M5484.8-1285.9c-8.4,0-14.9-2.6-19.5-7.9c-4.6-5.2-6.9-12.9-6.9-23.1v-38h17.2v36.4c0,5.8,1.2,10.2,3.5,13.3
			c2.4,3.1,6.1,4.6,11.1,4.6c4.8,0,8.7-1.7,11.9-5.2c3.1-3.4,4.7-8.2,4.7-14.4v-34.7h17.4v67.3H5509l-1.4-11.4c-2.1,4-5.1,7.1-9,9.5
			C5494.6-1287.1,5490.1-1285.9,5484.8-1285.9z"/>
		<path class="st2" d="M5581.9-1285.9c-5.1,0-9.5-0.9-13.3-2.8c-3.8-1.9-6.9-4.6-9.2-8l-1.9,9.2h-15.5v-97.7h17.4v40
			c2.2-3,5-5.6,8.6-7.9c3.6-2.3,8.2-3.4,13.9-3.4c6.3,0,12,1.5,17,4.6c5,3.1,8.9,7.3,11.8,12.6c2.9,5.3,4.3,11.4,4.3,18.2
			c0,6.8-1.4,12.8-4.3,18.1c-2.9,5.3-6.8,9.5-11.8,12.5C5593.9-1287.4,5588.3-1285.9,5581.9-1285.9z M5578.3-1301.1
			c5.5,0,10.1-1.9,13.7-5.6c3.6-3.7,5.4-8.5,5.4-14.4c0-5.9-1.8-10.7-5.4-14.5c-3.6-3.8-8.2-5.7-13.7-5.7c-5.6,0-10.2,1.9-13.8,5.6
			c-3.6,3.8-5.4,8.6-5.4,14.4c0,5.9,1.8,10.7,5.4,14.4C5568.1-1303,5572.7-1301.1,5578.3-1301.1z"/>
	</g>
</g>
<g>
	<g>
		<g>
			<g>
				<polygon points="4557.1,-818.1 4557.1,-705.8 4589.7,-724.3 4589.7,-799.1 4654.2,-836.5 4654.2,-874 				"/>
				<polygon points="4525.1,-818.1 4525.1,-705.8 4492.6,-724.3 4492.6,-799.1 4428,-836.5 4428,-874 				"/>
			</g>
			<polygon points="4540.9,-846.6 4638.2,-902.6 4606,-921.6 4541.1,-884.3 4476.5,-921.5 4444,-902.9 			"/>
		</g>
		<polygon points="4508.6,-940.4 4541.1,-958.9 4573.7,-940.4 4541.1,-921.4 		"/>
		<polygon points="4460.8,-780.4 4427.7,-799.4 4427.7,-762 4460.8,-743 		"/>
		<polygon points="4622.3,-780 4622,-741.8 4654.6,-760.2 4654.9,-798.4 		"/>
	</g>
	<g>
		<path d="M4744.2-783.3v-81h-27.7v-14h72.8v14h-27.8v81H4744.2z"/>
		<path d="M4822.3-781.7c-6.8,0-12.8-1.4-18-4.3c-5.2-2.9-9.4-7-12.3-12.2c-3-5.2-4.5-11.3-4.5-18.2c0-7,1.5-13.2,4.4-18.6
			c2.9-5.4,7-9.7,12.2-12.7c5.2-3,11.3-4.5,18.4-4.5c6.6,0,12.4,1.4,17.5,4.3c5.1,2.9,9,6.9,11.9,11.9s4.3,10.6,4.3,16.8
			c0,1,0,2-0.1,3.1c0,1.1-0.1,2.2-0.2,3.4h-51.1c0.4,5.2,2.2,9.4,5.5,12.3c3.3,3,7.3,4.5,12,4.5c3.5,0,6.5-0.8,8.9-2.4
			c2.4-1.6,4.2-3.6,5.4-6.2h17.6c-1.3,4.3-3.4,8.1-6.3,11.6c-2.9,3.5-6.6,6.2-10.9,8.2C4832.6-782.6,4827.7-781.7,4822.3-781.7z
			 M4822.4-838.1c-4.3,0-8,1.2-11.3,3.6c-3.3,2.4-5.3,6-6.2,10.9h33.5c-0.3-4.4-1.9-8-4.9-10.6
			C4830.6-836.8,4826.9-838.1,4822.4-838.1z"/>
		<path d="M4903.7-781.7c-6.9,0-12.9-1.5-18.2-4.5c-5.2-3-9.4-7.1-12.4-12.5c-3-5.3-4.5-11.4-4.5-18.3c0-6.9,1.5-13,4.5-18.3
			c3-5.3,7.2-9.5,12.4-12.5c5.2-3,11.3-4.5,18.2-4.5c8.6,0,15.8,2.2,21.7,6.7c5.9,4.5,9.6,10.6,11.3,18.5h-18.3
			c-0.9-3.3-2.7-5.8-5.4-7.7c-2.7-1.9-5.8-2.8-9.4-2.8c-4.8,0-8.9,1.8-12.2,5.4c-3.3,3.6-5,8.6-5,15.1c0,6.4,1.7,11.4,5,15.1
			c3.3,3.6,7.4,5.4,12.2,5.4c3.6,0,6.8-0.9,9.4-2.7c2.7-1.8,4.5-4.4,5.4-7.7h18.3c-1.6,7.6-5.4,13.7-11.3,18.3
			C4919.5-784,4912.3-781.7,4903.7-781.7z"/>
		<path d="M4952.1-783.3v-97.7h17.4v40.7c2.3-3.7,5.3-6.6,9.2-8.7c3.8-2.1,8.3-3.2,13.2-3.2c8.3,0,14.8,2.6,19.3,7.9
			c4.6,5.2,6.9,12.9,6.9,23.1v38h-17.2v-36.4c0-5.8-1.2-10.2-3.5-13.3c-2.3-3.1-5.9-4.6-10.9-4.6c-4.9,0-8.9,1.7-12.1,5.2
			c-3.2,3.4-4.8,8.2-4.8,14.4v34.7H4952.1z"/>
		<path d="M5034.6-783.3v-67.3h15.3l1.4,11.4c2.1-4,5.1-7.1,9-9.5c3.9-2.4,8.6-3.5,13.9-3.5c8.3,0,14.8,2.6,19.4,7.9
			c4.6,5.2,6.9,12.9,6.9,23.1v38h-17.4v-36.4c0-5.8-1.2-10.2-3.5-13.3c-2.4-3.1-6-4.6-11-4.6c-4.9,0-8.9,1.7-12,5.2
			c-3.1,3.4-4.7,8.2-4.7,14.4v34.7H5034.6z"/>
		<path d="M5149.3-781.7c-6.5,0-12.4-1.5-17.6-4.5c-5.2-3-9.3-7.1-12.3-12.4c-3-5.3-4.5-11.4-4.5-18.4c0-7,1.5-13.1,4.6-18.4
			c3.1-5.3,7.2-9.4,12.4-12.4c5.2-3,11.1-4.5,17.6-4.5c6.4,0,12.2,1.5,17.4,4.5c5.2,3,9.3,7.1,12.3,12.4c3,5.3,4.5,11.4,4.5,18.4
			c0,7-1.5,13.1-4.5,18.4c-3,5.3-7.2,9.4-12.4,12.4C5161.6-783.1,5155.8-781.7,5149.3-781.7z M5149.3-796.7c4.5,0,8.5-1.7,11.8-5.1
			c3.3-3.4,5-8.4,5-15.1c0-6.7-1.7-11.7-5-15.1c-3.3-3.4-7.2-5.1-11.7-5.1c-4.6,0-8.6,1.7-11.9,5.1c-3.3,3.4-5,8.4-5,15.1
			c0,6.7,1.6,11.7,5,15.1C5140.9-798.4,5144.8-796.7,5149.3-796.7z"/>
		<path d="M5231.9-783.3v-95h17.4v95H5231.9z"/>
		<path d="M5289.9-783.3v-81h-27.7v-14h72.8v14h-27.8v81H5289.9z"/>
		<path d="M5380.2-783.3v-95h17.4v39.5h42.6v-39.5h17.4v95h-17.4v-41.4h-42.6v41.4H5380.2z"/>
		<path d="M5500.8-781.7c-8.4,0-14.9-2.6-19.5-7.9c-4.6-5.2-6.9-12.9-6.9-23.1v-38h17.2v36.4c0,5.8,1.2,10.2,3.5,13.3
			c2.4,3.1,6.1,4.6,11.1,4.6c4.8,0,8.7-1.7,11.9-5.2c3.1-3.4,4.7-8.2,4.7-14.4v-34.7h17.4v67.3h-15.3l-1.4-11.4
			c-2.1,4-5.1,7.1-9,9.5C5510.6-782.8,5506-781.7,5500.8-781.7z"/>
		<path d="M5597.9-781.7c-5.1,0-9.5-0.9-13.3-2.8c-3.8-1.9-6.9-4.6-9.2-8l-1.9,9.2H5558v-97.7h17.4v40c2.2-3,5-5.6,8.6-7.9
			c3.6-2.3,8.2-3.4,13.9-3.4c6.3,0,12,1.5,17,4.6c5,3.1,8.9,7.3,11.8,12.6c2.9,5.3,4.3,11.4,4.3,18.2c0,6.8-1.4,12.8-4.3,18.1
			c-2.9,5.3-6.8,9.5-11.8,12.5C5609.9-783.2,5604.2-781.7,5597.9-781.7z M5594.3-796.8c5.5,0,10.1-1.9,13.7-5.6
			c3.6-3.7,5.4-8.5,5.4-14.4c0-5.9-1.8-10.7-5.4-14.5c-3.6-3.8-8.2-5.7-13.7-5.7c-5.6,0-10.2,1.9-13.8,5.6
			c-3.6,3.8-5.4,8.6-5.4,14.4c0,5.9,1.8,10.7,5.4,14.4C5584.1-798.7,5588.6-796.8,5594.3-796.8z"/>
	</g>
</g>
<g>
	<g>
		<g>
			<g>
				<polygon class="st0" points="4557.1,-2287.7 4557.1,-2175.4 4589.7,-2193.9 4589.7,-2268.7 4654.2,-2306.2 4654.2,-2343.6 				
					"/>
				<polygon class="st0" points="4525.1,-2287.7 4525.1,-2175.4 4492.6,-2193.9 4492.6,-2268.7 4428,-2306.2 4428,-2343.6 				"/>
			</g>
			<polygon class="st0" points="4540.9,-2316.2 4638.2,-2372.2 4606,-2391.2 4541.1,-2353.9 4476.5,-2391.2 4444,-2372.5 			"/>
		</g>
		<polygon class="st0" points="4508.6,-2410.1 4541.1,-2428.5 4573.7,-2410.1 4541.1,-2391.1 		"/>
		<polygon class="st0" points="4460.8,-2250 4427.7,-2269 4427.7,-2231.6 4460.8,-2212.6 		"/>
		<polygon class="st0" points="4622.3,-2249.6 4622,-2211.5 4654.6,-2229.8 4654.9,-2268 		"/>
	</g>
	<g>
		<path class="st0" d="M4744.2-2252.9v-81h-27.7v-14h72.8v14h-27.8v81H4744.2z"/>
		<path class="st0" d="M4822.3-2251.3c-6.8,0-12.8-1.4-18-4.3c-5.2-2.9-9.4-7-12.3-12.2c-3-5.2-4.5-11.3-4.5-18.2
			c0-7,1.5-13.2,4.4-18.6c2.9-5.4,7-9.7,12.2-12.7c5.2-3,11.3-4.5,18.4-4.5c6.6,0,12.4,1.4,17.5,4.3c5.1,2.9,9,6.9,11.9,11.9
			s4.3,10.6,4.3,16.8c0,1,0,2-0.1,3.1c0,1.1-0.1,2.2-0.2,3.4h-51.1c0.4,5.2,2.2,9.4,5.5,12.3c3.3,3,7.3,4.5,12,4.5
			c3.5,0,6.5-0.8,8.9-2.4c2.4-1.6,4.2-3.6,5.4-6.2h17.6c-1.3,4.3-3.4,8.1-6.3,11.6c-2.9,3.5-6.6,6.2-10.9,8.2
			C4832.6-2252.3,4827.7-2251.3,4822.3-2251.3z M4822.4-2307.7c-4.3,0-8,1.2-11.3,3.6c-3.3,2.4-5.3,6-6.2,10.9h33.5
			c-0.3-4.4-1.9-8-4.9-10.6C4830.6-2306.4,4826.9-2307.7,4822.4-2307.7z"/>
		<path class="st0" d="M4903.7-2251.3c-6.9,0-12.9-1.5-18.2-4.5c-5.2-3-9.4-7.1-12.4-12.5c-3-5.3-4.5-11.4-4.5-18.3
			c0-6.9,1.5-13,4.5-18.3c3-5.3,7.2-9.5,12.4-12.5c5.2-3,11.3-4.5,18.2-4.5c8.6,0,15.8,2.2,21.7,6.7c5.9,4.5,9.6,10.6,11.3,18.5
			h-18.3c-0.9-3.3-2.7-5.8-5.4-7.7c-2.7-1.9-5.8-2.8-9.4-2.8c-4.8,0-8.9,1.8-12.2,5.4c-3.3,3.6-5,8.6-5,15.1c0,6.4,1.7,11.4,5,15.1
			c3.3,3.6,7.4,5.4,12.2,5.4c3.6,0,6.8-0.9,9.4-2.7c2.7-1.8,4.5-4.4,5.4-7.7h18.3c-1.6,7.6-5.4,13.7-11.3,18.3
			C4919.5-2253.6,4912.3-2251.3,4903.7-2251.3z"/>
		<path class="st0" d="M4952.1-2252.9v-97.7h17.4v40.7c2.3-3.7,5.3-6.6,9.2-8.7c3.8-2.1,8.3-3.2,13.2-3.2c8.3,0,14.8,2.6,19.3,7.9
			c4.6,5.2,6.9,12.9,6.9,23.1v38h-17.2v-36.4c0-5.8-1.2-10.2-3.5-13.3c-2.3-3.1-5.9-4.6-10.9-4.6c-4.9,0-8.9,1.7-12.1,5.2
			c-3.2,3.4-4.8,8.2-4.8,14.4v34.7H4952.1z"/>
		<path class="st0" d="M5034.6-2252.9v-67.3h15.3l1.4,11.4c2.1-4,5.1-7.1,9-9.5c3.9-2.4,8.6-3.5,13.9-3.5c8.3,0,14.8,2.6,19.4,7.9
			c4.6,5.2,6.9,12.9,6.9,23.1v38h-17.4v-36.4c0-5.8-1.2-10.2-3.5-13.3c-2.4-3.1-6-4.6-11-4.6c-4.9,0-8.9,1.7-12,5.2
			c-3.1,3.4-4.7,8.2-4.7,14.4v34.7H5034.6z"/>
		<path class="st0" d="M5149.3-2251.3c-6.5,0-12.4-1.5-17.6-4.5c-5.2-3-9.3-7.1-12.3-12.4c-3-5.3-4.5-11.4-4.5-18.4
			c0-7,1.5-13.1,4.6-18.4c3.1-5.3,7.2-9.4,12.4-12.4c5.2-3,11.1-4.5,17.6-4.5c6.4,0,12.2,1.5,17.4,4.5c5.2,3,9.3,7.1,12.3,12.4
			c3,5.3,4.5,11.4,4.5,18.4c0,7-1.5,13.1-4.5,18.4c-3,5.3-7.2,9.4-12.4,12.4C5161.6-2252.8,5155.8-2251.3,5149.3-2251.3z
			 M5149.3-2266.3c4.5,0,8.5-1.7,11.8-5.1c3.3-3.4,5-8.4,5-15.1c0-6.7-1.7-11.7-5-15.1c-3.3-3.4-7.2-5.1-11.7-5.1
			c-4.6,0-8.6,1.7-11.9,5.1c-3.3,3.4-5,8.4-5,15.1c0,6.7,1.6,11.7,5,15.1C5140.9-2268,5144.8-2266.3,5149.3-2266.3z"/>
		<path class="st0" d="M5231.9-2252.9v-95h17.4v95H5231.9z"/>
		<path class="st0" d="M5289.9-2252.9v-81h-27.7v-14h72.8v14h-27.8v81H5289.9z"/>
		<path class="st0" d="M5380.2-2252.9v-95h17.4v39.5h42.6v-39.5h17.4v95h-17.4v-41.4h-42.6v41.4H5380.2z"/>
		<path class="st0" d="M5500.8-2251.3c-8.4,0-14.9-2.6-19.5-7.9c-4.6-5.2-6.9-12.9-6.9-23.1v-38h17.2v36.4c0,5.8,1.2,10.2,3.5,13.3
			c2.4,3.1,6.1,4.6,11.1,4.6c4.8,0,8.7-1.7,11.9-5.2c3.1-3.4,4.7-8.2,4.7-14.4v-34.7h17.4v67.3h-15.3l-1.4-11.4
			c-2.1,4-5.1,7.1-9,9.5C5510.6-2252.5,5506-2251.3,5500.8-2251.3z"/>
		<path class="st0" d="M5597.9-2251.3c-5.1,0-9.5-0.9-13.3-2.8c-3.8-1.9-6.9-4.6-9.2-8l-1.9,9.2H5558v-97.7h17.4v40
			c2.2-3,5-5.6,8.6-7.9c3.6-2.3,8.2-3.4,13.9-3.4c6.3,0,12,1.5,17,4.6c5,3.1,8.9,7.3,11.8,12.6c2.9,5.3,4.3,11.4,4.3,18.2
			c0,6.8-1.4,12.8-4.3,18.1c-2.9,5.3-6.8,9.5-11.8,12.5C5609.9-2252.8,5604.2-2251.3,5597.9-2251.3z M5594.3-2266.5
			c5.5,0,10.1-1.9,13.7-5.6c3.6-3.7,5.4-8.5,5.4-14.4c0-5.9-1.8-10.7-5.4-14.5c-3.6-3.8-8.2-5.7-13.7-5.7c-5.6,0-10.2,1.9-13.8,5.6
			c-3.6,3.8-5.4,8.6-5.4,14.4c0,5.9,1.8,10.7,5.4,14.4C5584.1-2268.3,5588.6-2266.5,5594.3-2266.5z"/>
	</g>
</g>
<rect x="2293.6" y="-4897.4" class="st3" width="1712.7" height="418.3"/>
<rect x="2293.6" y="-5315.6" class="st0" width="1712.7" height="418.3"/>
<text transform="matrix(1 0 0 1 2794.8799 -5057.4292)" class="st6" style="font-family:'DMSans-Bold'; font-size:135.6467px;">Techno IT Hub</text>
<rect x="2293.6" y="-4479.1" class="st2" width="1712.7" height="418.3"/>
<text transform="matrix(1 0 0 1 2794.8799 -4220.918)" class="st3" style="font-family:'DMSans-Bold'; font-size:135.6467px;">Techno IT Hub</text>
<rect x="2293.6" y="-4060.9" class="st7" width="1712.7" height="418.3"/>
<text transform="matrix(1 0 0 1 2794.8799 -3802.6628)" class="st0" style="font-family:'DMSans-Bold'; font-size:135.6467px;">Techno IT Hub</text>
<rect x="2293.6" y="-3642.6" class="st8" width="1712.7" height="418.3"/>
<text transform="matrix(1 0 0 1 2794.8799 -3384.4075)" style="font-family:'DMSans-Bold'; font-size:135.6467px;">Techno IT Hub</text>
<text transform="matrix(1 0 0 1 2794.8799 -4639.1738)" class="st0" style="font-family:'DMSans-Bold'; font-size:135.6467px;">Techno IT Hub</text>
<g>
	<path class="st2" d="M2622.2-5083L2622.2-5083c-13,0-23.5-10.5-23.5-23.5l0,0c0-13,10.5-23.5,23.5-23.5l0,0
		c13,0,23.5,10.5,23.5,23.5l0,0C2645.7-5093.5,2635.2-5083,2622.2-5083z"/>
	<g>
		<polygon class="st3" points="2577.5,-5203.3 2621.1,-5173.5 2666.9,-5203.3 2666.9,-5173.5 2622.6,-5143.7 2577.5,-5173.5 		"/>
		<rect x="2607.3" y="-5233.1" class="st3" width="29.8" height="29.8"/>
	</g>
	<g>
		<polygon class="st3" points="2525,-5061.3 2554.8,-5104.9 2525,-5150.8 2554.8,-5150.8 2584.6,-5106.4 2554.8,-5061.3 		"/>
		
			<rect x="2495.2" y="-5120.9" transform="matrix(6.123234e-17 -1 1 6.123234e-17 7616.1543 -2595.939)" class="st3" width="29.8" height="29.8"/>
	</g>
	<g>
		<polygon class="st3" points="2719.7,-5150.8 2689.9,-5107.2 2719.7,-5061.3 2689.9,-5061.3 2660.1,-5105.7 2689.9,-5150.8 		"/>
		
			<rect x="2719.7" y="-5120.9" transform="matrix(-1.836970e-16 1 -1 -1.836970e-16 -2371.4126 -7840.6807)" class="st3" width="29.8" height="29.8"/>
	</g>
	<g>
		<polygon class="st3" points="2667.6,-5009.7 2624,-5039.5 2578.2,-5009.7 2578.2,-5039.5 2622.5,-5069.3 2667.6,-5039.5 		"/>
		
			<rect x="2608" y="-5009.7" transform="matrix(-1 -1.224647e-16 1.224647e-16 -1 5245.7573 -9989.502)" class="st3" width="29.8" height="29.8"/>
	</g>
</g>
<g>
	<path class="st3" d="M2621.9-4246.5L2621.9-4246.5c-13,0-23.5-10.5-23.5-23.5l0,0c0-13,10.5-23.5,23.5-23.5l0,0
		c13,0,23.5,10.5,23.5,23.5l0,0C2645.4-4257,2634.9-4246.5,2621.9-4246.5z"/>
	<g>
		<polygon class="st3" points="2577.2,-4366.8 2620.8,-4337 2666.6,-4366.8 2666.6,-4337 2622.3,-4307.2 2577.2,-4337 		"/>
		<rect x="2607" y="-4396.6" class="st3" width="29.8" height="29.8"/>
	</g>
	<g>
		<polygon class="st3" points="2524.7,-4224.8 2554.5,-4268.4 2524.7,-4314.2 2554.5,-4314.2 2584.3,-4269.9 2554.5,-4224.8 		"/>
		
			<rect x="2494.9" y="-4284.4" transform="matrix(6.123234e-17 -1 1 6.123234e-17 6779.3379 -1759.7339)" class="st3" width="29.8" height="29.8"/>
	</g>
	<g>
		<polygon class="st3" points="2719.4,-4314.2 2689.6,-4270.7 2719.4,-4224.8 2689.6,-4224.8 2659.8,-4269.2 2689.6,-4314.2 		"/>
		
			<rect x="2719.4" y="-4284.4" transform="matrix(-1.836970e-16 1 -1 -1.836970e-16 -1535.2076 -7003.8643)" class="st3" width="29.8" height="29.8"/>
	</g>
	<g>
		<polygon class="st3" points="2667.3,-4173.1 2623.7,-4202.9 2577.9,-4173.1 2577.9,-4202.9 2622.2,-4232.7 2667.3,-4202.9 		"/>
		
			<rect x="2607.7" y="-4173.1" transform="matrix(-1 -1.224647e-16 1.224647e-16 -1 5245.146 -8316.4805)" class="st3" width="29.8" height="29.8"/>
	</g>
</g>
<g>
	<path class="st0" d="M2621.9-3828.2L2621.9-3828.2c-13,0-23.5-10.5-23.5-23.5v0c0-13,10.5-23.5,23.5-23.5l0,0
		c13,0,23.5,10.5,23.5,23.5v0C2645.4-3838.7,2634.9-3828.2,2621.9-3828.2z"/>
	<g>
		<polygon class="st0" points="2577.2,-3948.6 2620.8,-3918.8 2666.6,-3948.6 2666.6,-3918.8 2622.3,-3889 2577.2,-3918.8 		"/>
		<rect x="2607" y="-3978.4" class="st0" width="29.8" height="29.8"/>
	</g>
	<g>
		<polygon class="st0" points="2524.7,-3806.6 2554.5,-3850.1 2524.7,-3896 2554.5,-3896 2584.3,-3851.7 2554.5,-3806.6 		"/>
		
			<rect x="2494.9" y="-3866.2" transform="matrix(6.123234e-17 -1 1 6.123234e-17 6361.0825 -1341.4786)" class="st0" width="29.8" height="29.8"/>
	</g>
	<g>
		<polygon class="st0" points="2719.4,-3896 2689.6,-3852.4 2719.4,-3806.6 2689.6,-3806.6 2659.8,-3850.9 2689.6,-3896 		"/>
		
			<rect x="2719.4" y="-3866.2" transform="matrix(-1.836970e-16 1 -1 -1.836970e-16 -1116.9523 -6585.6089)" class="st0" width="29.8" height="29.8"/>
	</g>
	<g>
		<polygon class="st0" points="2667.3,-3754.9 2623.7,-3784.7 2577.9,-3754.9 2577.9,-3784.7 2622.2,-3814.5 2667.3,-3784.7 		"/>
		
			<rect x="2607.7" y="-3754.9" transform="matrix(-1 -1.224647e-16 1.224647e-16 -1 5245.146 -7479.9697)" class="st0" width="29.8" height="29.8"/>
	</g>
</g>
<g>
	<path class="st0" d="M2621.9-4664.7L2621.9-4664.7c-13,0-23.5-10.5-23.5-23.5l0,0c0-13,10.5-23.5,23.5-23.5l0,0
		c13,0,23.5,10.5,23.5,23.5l0,0C2645.4-4675.2,2634.9-4664.7,2621.9-4664.7z"/>
	<g>
		<polygon class="st0" points="2577.2,-4785.1 2620.8,-4755.3 2666.6,-4785.1 2666.6,-4755.3 2622.3,-4725.5 2577.2,-4755.3 		"/>
		<rect x="2607" y="-4814.9" class="st0" width="29.8" height="29.8"/>
	</g>
	<g>
		<polygon class="st0" points="2524.7,-4643.1 2554.5,-4686.6 2524.7,-4732.5 2554.5,-4732.5 2584.3,-4688.2 2554.5,-4643.1 		"/>
		
			<rect x="2494.9" y="-4702.7" transform="matrix(6.123234e-17 -1 1 6.123234e-17 7197.5933 -2177.9893)" class="st0" width="29.8" height="29.8"/>
	</g>
	<g>
		<polygon class="st0" points="2719.4,-4732.5 2689.6,-4688.9 2719.4,-4643.1 2689.6,-4643.1 2659.8,-4687.4 2689.6,-4732.5 		"/>
		
			<rect x="2719.4" y="-4702.7" transform="matrix(-1.836970e-16 1 -1 -1.836970e-16 -1953.463 -7422.1196)" class="st0" width="29.8" height="29.8"/>
	</g>
	<g>
		<polygon class="st0" points="2667.3,-4591.4 2623.7,-4621.2 2577.9,-4591.4 2577.9,-4621.2 2622.2,-4651 2667.3,-4621.2 		"/>
		
			<rect x="2607.7" y="-4591.4" transform="matrix(-1 -1.224647e-16 1.224647e-16 -1 5245.146 -9152.9912)" class="st0" width="29.8" height="29.8"/>
	</g>
</g>
<g>
	<path d="M2623-3409.9L2623-3409.9c-13,0-23.5-10.5-23.5-23.5l0,0c0-13,10.5-23.5,23.5-23.5h0c13,0,23.5,10.5,23.5,23.5l0,0
		C2646.5-3420.5,2636-3409.9,2623-3409.9z"/>
	<g>
		<polygon points="2578.3,-3530.3 2621.8,-3500.5 2667.7,-3530.3 2667.7,-3500.5 2623.4,-3470.7 2578.3,-3500.5 		"/>
		<rect x="2608.1" y="-3560.1" width="29.8" height="29.8"/>
	</g>
	<g>
		<polygon points="2525.8,-3388.3 2555.6,-3431.9 2525.8,-3477.7 2555.6,-3477.7 2585.4,-3433.4 2555.6,-3388.3 		"/>
		<rect x="2496" y="-3447.9" transform="matrix(6.123234e-17 -1 1 6.123234e-17 5943.9092 -922.1414)" width="29.8" height="29.8"/>
	</g>
	<g>
		<polygon points="2720.5,-3477.7 2690.7,-3434.2 2720.5,-3388.3 2690.7,-3388.3 2660.9,-3432.6 2690.7,-3477.7 		"/>
		
			<rect x="2720.5" y="-3447.9" transform="matrix(-1.836970e-16 1 -1 -1.836970e-16 -697.6151 -6168.4355)" width="29.8" height="29.8"/>
	</g>
	<g>
		<polygon points="2668.4,-3336.6 2624.8,-3366.4 2579,-3336.6 2579,-3366.4 2623.3,-3396.2 2668.4,-3366.4 		"/>
		
			<rect x="2608.8" y="-3336.6" transform="matrix(-1 -1.224647e-16 1.224647e-16 -1 5247.3096 -6643.459)" width="29.8" height="29.8"/>
	</g>
</g>
<g>
	<g>
		<g>
			<polygon class="st3" points="6594.1,-2767.7 6594.1,-2655.4 6626.7,-2673.8 6626.7,-2748.7 6691.2,-2786.1 6691.2,-2823.5 			"/>
			<polygon class="st3" points="6562.1,-2767.7 6562.1,-2655.4 6529.6,-2673.8 6529.6,-2748.7 6465,-2786.1 6465,-2823.5 			"/>
		</g>
		<polygon class="st3" points="6577.9,-2796.1 6675.2,-2852.1 6643,-2871.2 6578.1,-2833.8 6513.5,-2871.1 6481,-2852.4 		"/>
	</g>
	<polygon class="st2" points="6545.6,-2890 6578.1,-2908.4 6610.7,-2890 6578.1,-2871 	"/>
	<polygon class="st2" points="6497.8,-2730 6464.7,-2748.9 6464.7,-2711.5 6497.8,-2692.5 	"/>
	<polygon class="st2" points="6659.3,-2729.5 6659.1,-2691.4 6691.7,-2709.8 6691.9,-2747.9 	"/>
</g>
<g>
	<g>
		<g>
			<polygon class="st0" points="6594.1,-2224.8 6594.1,-2112.5 6626.7,-2130.9 6626.7,-2205.8 6691.2,-2243.2 6691.2,-2280.7 			"/>
			<polygon class="st0" points="6562.1,-2224.8 6562.1,-2112.5 6529.6,-2130.9 6529.6,-2205.8 6465,-2243.2 6465,-2280.7 			"/>
		</g>
		<polygon class="st0" points="6577.9,-2253.3 6675.2,-2309.3 6643,-2328.3 6578.1,-2290.9 6513.5,-2328.2 6481,-2309.5 		"/>
	</g>
	<polygon class="st0" points="6545.6,-2347.1 6578.1,-2365.6 6610.7,-2347.1 6578.1,-2328.1 	"/>
	<polygon class="st0" points="6497.8,-2187.1 6464.7,-2206.1 6464.7,-2168.6 6497.8,-2149.6 	"/>
	<polygon class="st0" points="6659.3,-2186.6 6659.1,-2148.5 6691.7,-2166.9 6691.9,-2205 	"/>
</g>
<g>
	<g>
		<g>
			<polygon class="st3" points="6594.1,-1608.9 6594.1,-1496.7 6626.7,-1515.1 6626.7,-1590 6691.2,-1627.4 6691.2,-1664.8 			"/>
			<polygon class="st3" points="6562.1,-1608.9 6562.1,-1496.7 6529.6,-1515.1 6529.6,-1590 6465,-1627.4 6465,-1664.8 			"/>
		</g>
		<polygon class="st3" points="6577.9,-1637.4 6675.2,-1693.4 6643,-1712.4 6578.1,-1675.1 6513.5,-1712.4 6481,-1693.7 		"/>
	</g>
	<polygon class="st3" points="6545.6,-1731.3 6578.1,-1749.7 6610.7,-1731.3 6578.1,-1712.3 	"/>
	<polygon class="st3" points="6497.8,-1571.2 6464.7,-1590.2 6464.7,-1552.8 6497.8,-1533.8 	"/>
	<polygon class="st3" points="6659.3,-1570.8 6659.1,-1532.7 6691.7,-1551.1 6691.9,-1589.2 	"/>
</g>
<g>
	<g>
		<g>
			<polygon class="st2" points="6630.9,-977.8 6630.9,-865.5 6663.4,-883.9 6663.4,-958.8 6728,-996.2 6728,-1033.7 			"/>
			<polygon class="st2" points="6598.9,-977.8 6598.9,-865.5 6566.3,-883.9 6566.3,-958.8 6501.8,-996.2 6501.8,-1033.7 			"/>
		</g>
		<polygon class="st2" points="6614.7,-1006.3 6712,-1062.3 6679.8,-1081.3 6614.9,-1044 6550.2,-1081.2 6517.8,-1062.6 		"/>
	</g>
	<polygon class="st2" points="6582.3,-1100.1 6614.9,-1118.6 6647.4,-1100.1 6614.9,-1081.1 	"/>
	<polygon class="st2" points="6534.6,-940.1 6501.5,-959.1 6501.5,-921.7 6534.6,-902.7 	"/>
	<polygon class="st2" points="6696.1,-939.7 6695.8,-901.5 6728.4,-919.9 6728.7,-958.1 	"/>
</g>
<g>
	<g>
		<g>
			<polygon points="6618.6,-404.9 6618.6,-292.6 6651.2,-311 6651.2,-385.9 6715.7,-423.3 6715.7,-460.7 			"/>
			<polygon points="6586.6,-404.9 6586.6,-292.6 6554.1,-311 6554.1,-385.9 6489.5,-423.3 6489.5,-460.7 			"/>
		</g>
		<polygon points="6602.4,-433.3 6699.7,-489.4 6667.5,-508.4 6602.6,-471 6538,-508.3 6505.5,-489.6 		"/>
	</g>
	<polygon points="6570.1,-527.2 6602.6,-545.6 6635.2,-527.2 6602.6,-508.2 	"/>
	<polygon points="6522.3,-367.2 6489.3,-386.1 6489.3,-348.7 6522.3,-329.7 	"/>
	<polygon points="6683.8,-366.7 6683.6,-328.6 6716.2,-347 6716.4,-385.1 	"/>
</g>
<text transform="matrix(1 0 0 1 4444.0088 -3154.0791)" style="font-family:'MyriadPro-Regular'; font-size:433.9343px;">THis are final </text>
</svg>
